<svg id="图层_1" data-name="图层 1" xmlns="http://www.w3.org/2000/svg" viewBox="0 0 16 16"><defs><style>.cls-1{fill:none;stroke:#000;stroke-linecap:round;stroke-linejoin:round;stroke-width:1.12px;}</style></defs><title>系统管理</title><path d="M13.82,12.2H2.18a2,2,0,0,1-2-2V2.91a2,2,0,0,1,2-2H13.82a2,2,0,0,1,2,2v7.27A2,2,0,0,1,13.82,12.2ZM2.18,2a.9.9,0,0,0-.89.9v7.27a.9.9,0,0,0,.89.9H13.82a.9.9,0,0,0,.89-.9V2.91a.9.9,0,0,0-.89-.9Z"/><line class="cls-1" x1="5.09" y1="14.55" x2="10.91" y2="14.55"/><path d="M8,15.1a.56.56,0,0,1-.56-.56v-2.9a.56.56,0,1,1,1.12,0v2.9A.56.56,0,0,1,8,15.1Z"/><path d="M6.92,5.82H4.25a.56.56,0,1,1,0-1.12H6.92a.56.56,0,0,1,0,1.12Z"/><path d="M10.55,8.73H4.25a.56.56,0,1,1,0-1.12h6.3a.56.56,0,0,1,0,1.12Z"/></svg>