<svg id="图层_1" data-name="图层 1" xmlns="http://www.w3.org/2000/svg" viewBox="0 0 16 16"><title>仪表盘</title><path d="M8,11.24A3.24,3.24,0,1,1,11.24,8,3.24,3.24,0,0,1,8,11.24ZM8,6a2,2,0,1,0,2,2A2,2,0,0,0,8,6Z"/><path d="M8,16a8,8,0,1,1,8-8A8,8,0,0,1,8,16ZM8,1.23A6.77,6.77,0,1,0,14.77,8,6.78,6.78,0,0,0,8,1.23Z"/><path d="M8,3.88a.61.61,0,0,1-.62-.61v-1a.62.62,0,0,1,1.24,0v1A.61.61,0,0,1,8,3.88Z"/><path d="M8,14.4a.62.62,0,0,1-.62-.62v-1a.62.62,0,0,1,1.24,0v1A.62.62,0,0,1,8,14.4Z"/><path d="M4.66,5.27a.62.62,0,0,1-.44-.18l-.74-.74a.62.62,0,0,1,.87-.87l.74.74a.62.62,0,0,1-.43,1Z"/><path d="M12.09,12.71a.6.6,0,0,1-.43-.18l-.75-.75a.62.62,0,1,1,.87-.87l.74.74a.61.61,0,0,1,0,.87A.59.59,0,0,1,12.09,12.71Z"/><path d="M3.27,8.62h-1a.62.62,0,1,1,0-1.24h1a.62.62,0,0,1,0,1.24Z"/><path d="M13.78,8.62h-1a.62.62,0,0,1,0-1.24h1a.62.62,0,1,1,0,1.24Z"/><path d="M3.91,12.71a.57.57,0,0,1-.43-.19.6.6,0,0,1,0-.87l.74-.74a.62.62,0,1,1,.87.87l-.74.75A.62.62,0,0,1,3.91,12.71Z"/><path d="M11.34,5.27a.62.62,0,0,1-.43-1l.75-.74a.6.6,0,0,1,.87,0,.61.61,0,0,1,0,.87l-.74.74A.62.62,0,0,1,11.34,5.27Z"/></svg>