<svg id="图层_1" data-name="图层 1" xmlns="http://www.w3.org/2000/svg" viewBox="0 0 16 16"><title>集成管理</title><path d="M2.93,10.31a2.93,2.93,0,0,1-.31-5.85A2.61,2.61,0,0,1,5.1,2.65a2.56,2.56,0,0,1,1.2.29,3.61,3.61,0,0,1,7,1.32v.11A2.94,2.94,0,0,1,16,7.29a3,3,0,0,1-2.76,3ZM3,5.59A1.81,1.81,0,0,0,1.15,7.38,1.78,1.78,0,0,0,2.93,9.16H13.2a1.87,1.87,0,0,0,1.65-1.87,1.78,1.78,0,0,0-1.78-1.78,2,2,0,0,0-.35,0,.55.55,0,0,1-.53-.17.54.54,0,0,1-.13-.54,2.54,2.54,0,0,0,.07-.57A2.47,2.47,0,0,0,7.21,4a.57.57,0,0,1-.4.49.56.56,0,0,1-.6-.18,1.46,1.46,0,0,0-2.56.78A.58.58,0,0,1,3,5.59Z"/><path d="M12.06,13.05a2.43,2.43,0,0,1-1.81-.64,1.75,1.75,0,0,1-.47-1.21V9.74a.58.58,0,1,1,1.15,0v1.49a.59.59,0,0,0,.17.4,1.36,1.36,0,0,0,1,.28.57.57,0,0,1,0,1.14Z"/><path d="M3.72,14.2a.58.58,0,0,1,0-1.15,1.41,1.41,0,0,0,1-.27.61.61,0,0,0,.16-.39V9.73A.58.58,0,0,1,6,9.73v2.64a1.74,1.74,0,0,1-.47,1.18A2.4,2.4,0,0,1,3.72,14.2Z"/><path d="M13.12,13.87a1.41,1.41,0,1,1,1.41-1.41A1.41,1.41,0,0,1,13.12,13.87Zm0-1.85a.44.44,0,0,0-.44.44.44.44,0,0,0,.88,0A.44.44,0,0,0,13.12,12Z"/><path d="M2.68,15.35a1.41,1.41,0,1,1,1.41-1.41A1.41,1.41,0,0,1,2.68,15.35Zm0-1.85a.45.45,0,0,0,0,.89.45.45,0,0,0,0-.89Z"/><path d="M8,14.79a1.41,1.41,0,1,1,1.41-1.41A1.41,1.41,0,0,1,8,14.79Zm0-1.85a.45.45,0,1,0,.44.44A.44.44,0,0,0,8,12.94Z"/><path d="M8,12.94a.47.47,0,0,1-.48-.48V9.74a.48.48,0,1,1,1,0v2.72A.47.47,0,0,1,8,12.94Z"/></svg>