<svg id="图层_1" data-name="图层 1" xmlns="http://www.w3.org/2000/svg" viewBox="0 0 16 16"><title>组件管理</title><path d="M8,16a2,2,0,0,1-.9-.21L1.63,13.05a2,2,0,0,1-1.11-1.8V4.74A2,2,0,0,1,1.63,3L7.11.21a2,2,0,0,1,1.78,0h0L14.37,3a2,2,0,0,1,1.11,1.79v6.52a2,2,0,0,1-1.11,1.79L8.89,15.79A2,2,0,0,1,8,16ZM8,1.27a.78.78,0,0,0-.33.07L2.2,4.08a.74.74,0,0,0-.41.66v6.51a.73.73,0,0,0,.41.67l5.47,2.74a.76.76,0,0,0,.66,0l5.47-2.74a.74.74,0,0,0,.41-.66V4.74a.74.74,0,0,0-.41-.66L8.33,1.34A.78.78,0,0,0,8,1.27Z"/><path d="M8,7.94a.67.67,0,0,1-.28-.06L1.09,4.57a.64.64,0,0,1,.57-1.14L8,6.6l6.34-3.17a.64.64,0,0,1,.57,1.14L8.28,7.88A.67.67,0,0,1,8,7.94Z"/><path d="M8,16a.63.63,0,0,1-.63-.63v-8a.63.63,0,1,1,1.26,0v8.05A.63.63,0,0,1,8,16Z"/></svg>