<svg id="图层_1" data-name="图层 1" xmlns="http://www.w3.org/2000/svg" viewBox="0 0 16 16"><title>监控管理</title><path d="M3.58,13.67a3.58,3.58,0,1,1,3.57-3.58A3.58,3.58,0,0,1,3.58,13.67Zm0-6A2.46,2.46,0,1,0,6,10.09,2.46,2.46,0,0,0,3.58,7.64Z"/><path d="M12.42,13.67A3.58,3.58,0,1,1,16,10.09,3.57,3.57,0,0,1,12.42,13.67Zm0-6a2.46,2.46,0,1,0,2.46,2.45A2.46,2.46,0,0,0,12.42,7.64Z"/><path d="M8,11.89a1.8,1.8,0,1,1,1.79-1.8A1.8,1.8,0,0,1,8,11.89ZM8,9.25a.85.85,0,1,0,.84.84A.84.84,0,0,0,8,9.25Z"/><path d="M14.65,8.62a.55.55,0,0,1-.41-.18L9.76,3.65,8.37,4.79a.56.56,0,1,1-.71-.87l1.8-1.47a.56.56,0,0,1,.76.06l4.84,5.17a.56.56,0,0,1,0,.79A.58.58,0,0,1,14.65,8.62Z"/><path d="M1.38,8.62A.54.54,0,0,1,1,8.47a.56.56,0,0,1,0-.79L5.81,2.51a.56.56,0,0,1,.76-.06l1.8,1.47a.56.56,0,0,1-.71.87L6.27,3.65,1.79,8.44A.55.55,0,0,1,1.38,8.62Z"/></svg>