<svg id="图层_1" data-name="图层 1" xmlns="http://www.w3.org/2000/svg" viewBox="0 0 16 16"><title>日志</title><path d="M12.36,15.83H3.64a2,2,0,0,1-2-2V2.18a2,2,0,0,1,2-2H9.46a.57.57,0,0,1,.39.16l4.36,4.36a.56.56,0,0,1,.17.4v8.73A2,2,0,0,1,12.36,15.83ZM3.64,1.29a.89.89,0,0,0-.9.89V13.82a.89.89,0,0,0,.9.89h8.72a.89.89,0,0,0,.9-.89V5.32l-4-4Z"/><path d="M13.82,5.65H9.46a.56.56,0,0,1-.56-.56V.73A.56.56,0,1,1,10,.73v3.8h3.81a.56.56,0,1,1,0,1.12Z"/><path d="M10.91,9.29H5.09a.56.56,0,0,1,0-1.12h5.82a.56.56,0,0,1,0,1.12Z"/><path d="M10.91,12.2H5.09a.56.56,0,0,1,0-1.12h5.82a.56.56,0,0,1,0,1.12Z"/><path d="M6.55,6.38H5.09a.56.56,0,0,1,0-1.12H6.55a.56.56,0,0,1,0,1.12Z"/></svg>