<svg id="图层_1" data-name="图层 1" xmlns="http://www.w3.org/2000/svg" viewBox="0 0 16 16"><defs><style>.cls-1{fill:#fff;}</style></defs><title>路由管理</title><path class="cls-1" d="M11.94,5.3H4.06a.58.58,0,0,1-.58-.58V2.35A2.33,2.33,0,0,1,5.81,0h4.38a2.33,2.33,0,0,1,2.33,2.33V4.72A.58.58,0,0,1,11.94,5.3ZM4.64,4.13h6.72V2.35a1.18,1.18,0,0,0-1.17-1.17H5.81A1.18,1.18,0,0,0,4.64,2.35Z"/><path class="cls-1" d="M12.08,16H3.92a2.33,2.33,0,0,1-2.34-2.33V6.47A2.34,2.34,0,0,1,3.92,4.13h8.16a2.34,2.34,0,0,1,2.34,2.34v7.18A2.33,2.33,0,0,1,12.08,16ZM3.92,5.3A1.17,1.17,0,0,0,2.75,6.47v7.18a1.17,1.17,0,0,0,1.17,1.17h8.16a1.17,1.17,0,0,0,1.17-1.17V6.47A1.17,1.17,0,0,0,12.08,5.3Z"/><path class="cls-1" d="M7.17,3.24H5.89a.59.59,0,0,1-.59-.58.6.6,0,0,1,.59-.59H7.17a.59.59,0,0,1,.58.59A.58.58,0,0,1,7.17,3.24Z"/><path class="cls-1" d="M10.11,3.24H8.83a.58.58,0,0,1-.58-.58.59.59,0,0,1,.58-.59h1.28a.6.6,0,0,1,.59.59A.59.59,0,0,1,10.11,3.24Z"/><path d="M11.94,5.29H4.06a.58.58,0,0,1-.57-.57V2.35A2.32,2.32,0,0,1,5.81,0h4.38a2.32,2.32,0,0,1,2.32,2.32V4.72A.58.58,0,0,1,11.94,5.29ZM4.63,4.15h6.74V2.35a1.18,1.18,0,0,0-1.18-1.18H5.81A1.18,1.18,0,0,0,4.63,2.35Z"/><path d="M12.08,16H3.92a2.33,2.33,0,0,1-2.33-2.32V6.47A2.33,2.33,0,0,1,3.92,4.15h8.16a2.33,2.33,0,0,1,2.33,2.32v7.18A2.33,2.33,0,0,1,12.08,16ZM3.92,5.29A1.18,1.18,0,0,0,2.73,6.47v7.18a1.18,1.18,0,0,0,1.19,1.18h8.16a1.18,1.18,0,0,0,1.19-1.18V6.47a1.18,1.18,0,0,0-1.19-1.18Z"/><path d="M7.17,3.23H5.89a.57.57,0,0,1-.57-.57.56.56,0,0,1,.57-.57H7.17a.57.57,0,0,1,.57.57A.58.58,0,0,1,7.17,3.23Z"/><path d="M10.11,3.23H8.83a.58.58,0,0,1-.57-.57.57.57,0,0,1,.57-.57h1.28a.56.56,0,0,1,.57.57A.57.57,0,0,1,10.11,3.23Z"/></svg>