<svg id="图层_1" data-name="图层 1" xmlns="http://www.w3.org/2000/svg" viewBox="0 0 16 16"><title>安全管理</title><path d="M8,15.89a.59.59,0,0,1-.23-.05A10.8,10.8,0,0,1,1.08,6.1V.73a.62.62,0,0,1,1-.44,3.65,3.65,0,0,0,3,1.26A4.09,4.09,0,0,0,7.56.29a.65.65,0,0,1,.88,0,3.56,3.56,0,0,0,5.43,0,.62.62,0,0,1,1.05.44V6.08a10.8,10.8,0,0,1-6.69,9.76A.59.59,0,0,1,8,15.89ZM2.31,2V6.08A9.55,9.55,0,0,0,8,14.6a9.56,9.56,0,0,0,5.69-8.53V2a4.48,4.48,0,0,1-3,.75A5.3,5.3,0,0,1,8,1.56,5.21,5.21,0,0,1,5.26,2.78,4.47,4.47,0,0,1,2.31,2Z"/><path d="M8,11a.62.62,0,0,1-.62-.62V8.13H5.09a.61.61,0,0,1-.61-.61.61.61,0,0,1,.61-.62H7.38V4.61a.62.62,0,0,1,1.24,0V6.9h2.29a.61.61,0,0,1,.61.62.61.61,0,0,1-.61.61H8.62v2.29A.62.62,0,0,1,8,11Z"/></svg>