<svg id="图层_1" data-name="图层 1" xmlns="http://www.w3.org/2000/svg" viewBox="0 0 16 16"><title>服务管理</title><path d="M6.4,7H.8A.62.62,0,0,1,.18,6.4V.8A.62.62,0,0,1,.8.18H6.4A.62.62,0,0,1,7,.8V6.4A.62.62,0,0,1,6.4,7Zm-5-1.24H5.79V1.42H1.42Z"/><path d="M15.2,7H9.6A.62.62,0,0,1,9,6.4V.8A.62.62,0,0,1,9.6.18h5.6a.62.62,0,0,1,.62.62V6.4A.62.62,0,0,1,15.2,7Zm-5-1.24h4.37V1.42H10.21Z"/><path d="M15.2,15.82H9.6A.62.62,0,0,1,9,15.2V9.6A.62.62,0,0,1,9.6,9h5.6a.62.62,0,0,1,.62.62v5.6A.62.62,0,0,1,15.2,15.82Zm-5-1.24h4.37V10.21H10.21Z"/><path d="M6.4,15.82H.8a.62.62,0,0,1-.62-.62V9.6A.62.62,0,0,1,.8,9H6.4A.62.62,0,0,1,7,9.6v5.6A.62.62,0,0,1,6.4,15.82Zm-5-1.24H5.79V10.21H1.42Z"/></svg>