<svg id="图层_1" data-name="图层 1" xmlns="http://www.w3.org/2000/svg" viewBox="0 0 16 16"><title>系统管理_1</title><path d="M15.33,6.92H.67a.56.56,0,0,1-.56-.56V.5A.56.56,0,0,1,.67-.06H15.33a.56.56,0,0,1,.56.56V6.36A.56.56,0,0,1,15.33,6.92ZM1.23,5.8H14.77V1.06H1.23Z"/><path d="M12.48,4H9.34a.56.56,0,0,1,0-1.12h3.14a.56.56,0,0,1,0,1.12Z"/><path d="M6.66,4H3.52a.56.56,0,0,1,0-1.12H6.66A.56.56,0,0,1,6.66,4Z"/><path d="M15.33,16.06H.67a.56.56,0,0,1-.56-.56V9.64a.56.56,0,0,1,.56-.56H15.33a.56.56,0,0,1,.56.56V15.5A.56.56,0,0,1,15.33,16.06ZM1.23,14.94H14.77V10.2H1.23Z"/><path d="M12.48,13.13H9.34a.56.56,0,0,1,0-1.12h3.14a.56.56,0,0,1,0,1.12Z"/><path d="M6.66,13.13H3.52a.56.56,0,1,1,0-1.12H6.66a.56.56,0,0,1,0,1.12Z"/></svg>